<?xml version="1.0" standalone="no"?>
<!DOCTYPE svg PUBLIC "-//W3C//DTD SVG 20010904//EN"
 "http://www.w3.org/TR/2001/REC-SVG-20010904/DTD/svg10.dtd">
<svg version="1.0" xmlns="http://www.w3.org/2000/svg"
 width="305.000000pt" height="305.000000pt" viewBox="0 0 305.000000 305.000000"
 preserveAspectRatio="xMidYMid meet">

<g transform="translate(0.000000,305.000000) scale(0.100000,-0.100000)"
fill="#000000" stroke="none">
<path d="M440 3035 c-153 -34 -305 -145 -367 -270 -73 -143 -67 -55 -71 -1207
-3 -1153 -5 -1117 64 -1256 65 -132 177 -225 334 -278 52 -18 114 -19 1092
-22 1153 -3 1117 -5 1256 64 132 65 225 177 278 334 18 52 19 114 22 1092 3
1153 5 1117 -64 1256 -65 132 -177 225 -334 278 -52 18 -113 19 -1100 21 -870
1 -1056 -1 -1110 -12z m725 -152 c524 -216 878 -614 970 -1093 20 -107 29
-329 18 -439 l-9 -84 19 24 c26 32 66 118 84 182 8 29 17 112 20 184 6 147 15
167 70 161 23 -2 34 -14 60 -63 18 -33 46 -103 63 -155 139 -443 39 -859 -277
-1161 -165 -158 -358 -254 -576 -289 -102 -17 -279 -8 -382 19 -194 51 -412
194 -519 339 -88 121 -157 307 -177 480 -27 225 44 481 190 682 163 223 240
364 263 478 11 55 10 69 -5 111 -22 64 -22 98 2 111 32 17 66 11 109 -18 86
-57 144 -170 175 -337 3 -16 7 -13 20 17 27 60 39 128 39 223 0 171 -68 315
-227 483 -107 112 -116 139 -60 170 24 13 49 8 130 -25z"/>
</g>
</svg>
